<svg xmlns="http://www.w3.org/2000/svg" viewBox="0 0 512 512" width="100%" height="100%">
  <defs>
    <linearGradient id="bg" x1="0%" y1="0%" x2="100%" y2="100%">
      <stop offset="0%" stop-color="#0f172a" />
      <stop offset="100%" stop-color="#0284c7" />
    </linearGradient>
    <linearGradient id="sun" x1="0%" y1="0%" x2="100%" y2="100%">
      <stop offset="0%" stop-color="#fbbf24" />
      <stop offset="100%" stop-color="#f59e0b" />
    </linearGradient>
    <linearGradient id="cloud" x1="0%" y1="0%" x2="100%" y2="100%">
      <stop offset="0%" stop-color="#ffffff" />
      <stop offset="100%" stop-color="#cbd5e1" />
    </linearGradient>
  </defs>
  <rect width="512" height="512" rx="100" fill="url(#bg)" />
  <!-- Sun -->
  <circle cx="340" cy="180" r="85" fill="url(#sun)" />
  <!-- Sun Rays -->
  <g stroke="#f59e0b" stroke-width="12" stroke-linecap="round" opacity="0.8">
    <line x1="340" y1="60" x2="340" y2="80" />
    <line x1="460" y1="180" x2="440" y2="180" />
    <line x1="425" y1="95" x2="410" y2="110" />
    <line x1="425" y1="265" x2="410" y2="250" />
  </g>
  <!-- Cloud -->
  <path d="M160 360 h220 a70 70 0 0 0 0 -140 a95 95 0 0 0 -185 -25 a65 65 0 0 0 -35 165 z" fill="url(#cloud)" />
</svg>
